<svg xmlns="http://www.w3.org/2000/svg" xmlns:xlink="http://www.w3.org/1999/xlink" width="500" zoomAndPan="magnify" viewBox="0 0 375 374.999991" height="500" preserveAspectRatio="xMidYMid meet" version="1.0"><defs><clipPath id="f8bff51524"><path d="M 43.347656 46.410156 L 331.347656 46.410156 L 331.347656 328.410156 L 43.347656 328.410156 Z M 43.347656 46.410156 " clip-rule="nonzero"/></clipPath></defs><g clip-path="url(#f8bff51524)"><path fill="#ffffff" d="M 127.371094 46.410156 L 127.371094 100.292969 C 112.574219 103.335938 99.039062 107.425781 87.414062 112.480469 C 84.617188 113.699219 81.972656 114.992188 79.390625 116.3125 L 79.390625 100.410156 L 103.382812 88.410156 L 67.394531 70.410156 L 67.394531 123.460938 C 63.113281 126.40625 59.207031 129.511719 55.9375 132.871094 C 48.9375 140.074219 44.863281 148.574219 44.050781 157.621094 C 43.605469 158.5 43.390625 159.429688 43.40625 160.410156 L 43.40625 262.410156 C 43.390625 263.382812 43.601562 264.304688 44.039062 265.175781 C 44.84375 274.234375 48.929688 282.742188 55.9375 289.949219 C 63.679688 297.910156 74.421875 304.691406 87.414062 310.339844 C 113.402344 321.644531 148.550781 328.410156 187.347656 328.410156 C 226.148438 328.410156 261.296875 321.644531 287.28125 310.339844 C 300.273438 304.691406 311.015625 297.910156 318.757812 289.949219 C 325.757812 282.75 329.832031 274.25 330.648438 265.199219 C 331.089844 264.324219 331.304688 263.394531 331.292969 262.410156 L 331.292969 160.410156 C 331.304688 159.4375 331.09375 158.515625 330.660156 157.644531 C 329.851562 148.589844 325.765625 140.078125 318.757812 132.871094 C 315.488281 129.511719 311.582031 126.40625 307.300781 123.460938 L 307.300781 100.410156 L 331.292969 88.410156 L 295.304688 70.410156 L 295.304688 116.3125 C 292.722656 114.992188 290.078125 113.699219 287.28125 112.480469 C 275.65625 107.425781 262.121094 103.335938 247.324219 100.292969 L 247.324219 76.410156 L 271.316406 64.410156 L 235.328125 46.410156 L 235.328125 98.125 C 220.304688 95.753906 204.203125 94.410156 187.347656 94.410156 C 170.492188 94.410156 154.394531 95.753906 139.367188 98.125 L 139.367188 76.410156 L 163.359375 64.410156 Z M 187.347656 106.410156 C 203.710938 106.410156 219.316406 107.75 233.78125 110.054688 L 227.761719 128.136719 C 214.953125 125.726562 201.394531 124.410156 187.347656 124.410156 C 173.300781 124.410156 159.742188 125.726562 146.933594 128.136719 L 140.914062 110.054688 C 155.378906 107.75 170.988281 106.410156 187.347656 106.410156 Z M 128.988281 112.246094 L 135.125 130.691406 C 118.890625 134.796875 104.179688 140.808594 91.679688 148.375 C 87.789062 142.148438 83.902344 135.921875 80.011719 129.695312 C 83.742188 127.527344 87.730469 125.425781 92.195312 123.484375 C 102.703125 118.914062 115.203125 115.125 128.988281 112.246094 Z M 245.707031 112.246094 C 259.492188 115.125 271.992188 118.914062 282.503906 123.484375 C 286.96875 125.425781 290.953125 127.527344 294.683594 129.695312 C 290.792969 135.921875 286.90625 142.148438 283.015625 148.375 C 270.519531 140.808594 255.800781 134.796875 239.570312 130.691406 Z M 70.03125 136.339844 C 73.945312 142.605469 77.855469 148.871094 81.769531 155.136719 C 73.582031 161.292969 66.652344 168.199219 61.328125 175.796875 C 57.371094 170.675781 55.398438 165.5625 55.398438 160.410156 C 55.398438 153.992188 58.316406 147.632812 64.535156 141.238281 C 66.148438 139.582031 67.996094 137.953125 70.03125 136.339844 Z M 304.664062 136.339844 C 306.699219 137.953125 308.546875 139.582031 310.160156 141.238281 C 316.378906 147.632812 319.296875 153.992188 319.296875 160.410156 C 319.296875 165.5625 317.324219 170.675781 313.367188 175.796875 C 308.042969 168.199219 301.113281 161.292969 292.925781 155.136719 C 296.839844 148.871094 300.75 142.605469 304.664062 136.339844 Z M 187.347656 136.410156 C 200.089844 136.410156 212.328125 137.628906 223.882812 139.773438 L 218.226562 156.742188 C 208.34375 155.472656 198.210938 154.410156 187.347656 154.410156 C 176.484375 154.410156 166.351562 155.472656 156.46875 156.742188 L 150.8125 139.773438 C 162.367188 137.628906 174.605469 136.410156 187.347656 136.410156 Z M 139.003906 142.328125 L 144.4375 158.617188 C 135.109375 160.375 125.992188 162.34375 118.246094 165.132812 C 113.480469 166.851562 110.113281 169.277344 106.027344 171.34375 C 103.421875 167.171875 100.808594 163.003906 98.203125 158.828125 C 109.75 151.910156 123.589844 146.242188 139.003906 142.328125 Z M 235.691406 142.328125 C 251.105469 146.242188 264.945312 151.910156 276.492188 158.828125 C 273.886719 163.003906 271.273438 167.171875 268.667969 171.34375 C 264.582031 169.277344 261.214844 166.851562 256.449219 165.132812 C 248.703125 162.34375 239.585938 160.375 230.257812 158.617188 Z M 88.28125 165.566406 C 90.621094 169.308594 92.960938 173.050781 95.296875 176.792969 C 89.167969 181.199219 84.492188 186.261719 81.804688 192.167969 C 77.382812 189.714844 73.378906 187.144531 70.019531 184.480469 C 74.480469 177.714844 80.65625 171.339844 88.28125 165.566406 Z M 286.414062 165.566406 C 294.039062 171.339844 300.214844 177.714844 304.675781 184.480469 C 301.316406 187.144531 297.3125 189.714844 292.890625 192.167969 C 290.203125 186.265625 285.527344 181.199219 279.398438 176.792969 C 281.734375 173.050781 284.078125 169.308594 286.414062 165.566406 Z M 187.347656 166.410156 C 212.421875 166.410156 235.300781 170.265625 252.386719 176.417969 C 268.757812 182.316406 279.15625 190.535156 282.175781 197.464844 C 258.253906 207.800781 224.574219 214.410156 187.347656 214.410156 C 150.121094 214.410156 116.445312 207.800781 92.523438 197.464844 C 95.539062 190.539062 105.929688 182.3125 122.300781 176.417969 C 139.386719 170.265625 162.273438 166.410156 187.347656 166.410156 Z M 55.398438 187.1875 C 55.621094 187.425781 55.710938 187.714844 55.9375 187.949219 C 63.679688 195.910156 74.421875 202.691406 87.414062 208.339844 C 113.402344 219.644531 148.550781 226.410156 187.347656 226.410156 C 226.144531 226.410156 261.296875 219.644531 287.28125 208.339844 C 300.273438 202.691406 311.015625 195.910156 318.757812 187.949219 C 318.984375 187.714844 319.074219 187.425781 319.296875 187.1875 L 319.296875 262.410156 C 319.296875 268.832031 316.378906 275.1875 310.160156 281.582031 C 303.941406 287.976562 294.472656 294.128906 282.503906 299.335938 C 269.410156 305.03125 253.296875 309.546875 235.328125 312.519531 L 235.328125 250.410156 C 235.328125 250.015625 235.289062 249.628906 235.214844 249.242188 C 235.136719 248.855469 235.023438 248.480469 234.871094 248.117188 C 234.722656 247.75 234.535156 247.40625 234.316406 247.078125 C 234.097656 246.75 233.851562 246.449219 233.574219 246.167969 C 233.292969 245.890625 232.992188 245.640625 232.664062 245.421875 C 232.335938 245.203125 231.992188 245.019531 231.625 244.867188 C 231.261719 244.71875 230.886719 244.605469 230.5 244.527344 C 230.117188 244.449219 229.726562 244.410156 229.332031 244.410156 L 145.363281 244.410156 C 144.972656 244.410156 144.582031 244.449219 144.195312 244.527344 C 143.808594 244.605469 143.433594 244.71875 143.070312 244.867188 C 142.707031 245.019531 142.359375 245.203125 142.03125 245.421875 C 141.707031 245.640625 141.402344 245.890625 141.125 246.167969 C 140.84375 246.449219 140.597656 246.75 140.378906 247.078125 C 140.160156 247.40625 139.972656 247.75 139.824219 248.117188 C 139.671875 248.480469 139.558594 248.855469 139.480469 249.242188 C 139.40625 249.628906 139.367188 250.015625 139.367188 250.410156 L 139.367188 312.519531 C 121.398438 309.546875 105.285156 305.03125 92.195312 299.335938 C 80.222656 294.128906 70.753906 287.976562 64.535156 281.582031 C 58.316406 275.1875 55.398438 268.832031 55.398438 262.410156 Z M 151.363281 256.410156 L 223.332031 256.410156 L 223.332031 314.230469 C 211.875 315.609375 199.839844 316.410156 187.347656 316.410156 C 174.855469 316.410156 162.820312 315.609375 151.363281 314.230469 Z M 151.363281 256.410156 " fill-opacity="1" fill-rule="nonzero"/></g></svg>