<svg xmlns="http://www.w3.org/2000/svg" xmlns:xlink="http://www.w3.org/1999/xlink" width="500" zoomAndPan="magnify" viewBox="0 0 375 374.999991" height="500" preserveAspectRatio="xMidYMid meet" version="1.0"><defs><clipPath id="413a91db51"><path d="M 59.460938 21.488281 L 312 21.488281 L 312 353.738281 L 59.460938 353.738281 Z M 59.460938 21.488281 " clip-rule="nonzero"/></clipPath></defs><g clip-path="url(#413a91db51)"><path fill="#ffffff" d="M 308.734375 181.320312 C 308.535156 180.605469 308.324219 179.898438 308.105469 179.199219 C 307.972656 178.761719 307.824219 178.328125 307.683594 177.894531 C 307.601562 177.640625 307.519531 177.386719 307.4375 177.132812 C 307.234375 176.539062 307.023438 175.949219 306.8125 175.363281 C 306.785156 175.285156 306.757812 175.207031 306.730469 175.128906 C 303.296875 165.753906 298.289062 157.171875 291.785156 149.546875 L 291.53125 149.253906 L 291.46875 149.21875 C 283.433594 139.925781 273.492188 132.546875 262.433594 127.527344 C 248.945312 119.542969 230.820312 109.453125 216.179688 101.304688 C 204.464844 94.785156 194.347656 89.152344 190.910156 86.988281 L 190.140625 88.214844 L 190.910156 86.988281 C 173.722656 76.316406 156.578125 65.535156 139.464844 54.730469 L 113.839844 38.4375 C 109.582031 35.703125 105.320312 32.96875 101.085938 30.199219 C 98.960938 28.824219 96.859375 27.417969 94.75 26.019531 C 93.691406 25.328125 92.65625 24.597656 91.613281 23.878906 C 91.097656 23.515625 90.5625 23.171875 90.0625 22.789062 L 88.5625 21.628906 L 90.039062 22.820312 C 90.535156 23.214844 91.058594 23.566406 91.570312 23.941406 C 92.597656 24.679688 93.617188 25.429688 94.664062 26.144531 C 96.742188 27.589844 98.820312 29.035156 100.917969 30.453125 C 105.097656 33.308594 109.300781 36.128906 113.503906 38.949219 L 138.804688 55.757812 C 142.636719 58.285156 146.472656 60.800781 150.308594 63.328125 C 146.5 63.820312 138.703125 64.496094 133.886719 62.636719 L 101.140625 41.007812 L 100.476562 42.015625 L 101.125 41 C 96.1875 38.066406 91.265625 35.074219 86.398438 32.015625 C 83.964844 30.484375 81.542969 28.929688 79.160156 27.328125 C 77.964844 26.527344 76.78125 25.710938 75.621094 24.863281 C 75.042969 24.4375 74.472656 24.003906 73.914062 23.550781 C 73.378906 23.082031 72.792969 22.636719 72.425781 22.011719 C 72.746094 22.664062 73.308594 23.15625 73.816406 23.664062 C 74.339844 24.160156 74.882812 24.636719 75.433594 25.101562 C 76.535156 26.035156 77.664062 26.9375 78.800781 27.820312 C 81.078125 29.59375 83.390625 31.320312 85.714844 33.023438 C 88.796875 35.28125 91.90625 37.496094 95.027344 39.695312 L 66.28125 33.945312 L 99.960938 43.152344 L 132.074219 64.359375 L 132.011719 64.488281 C 132.242188 64.597656 132.484375 64.691406 132.722656 64.789062 L 133.566406 65.347656 L 150.175781 78.078125 C 140.824219 75.460938 127.75 72.511719 125.746094 72.066406 C 122.09375 69.605469 95.796875 56.933594 89.402344 54.5 L 89.136719 54.109375 C 88.898438 53.777344 88.644531 53.53125 88.398438 53.238281 C 87.914062 52.65625 87.394531 52.15625 86.886719 51.636719 C 85.859375 50.613281 84.816406 49.628906 83.75 48.675781 C 81.628906 46.753906 79.460938 44.910156 77.273438 43.085938 C 72.902344 39.441406 68.460938 35.890625 63.976562 32.40625 C 68.203125 36.203125 72.375 40.058594 76.460938 43.996094 C 78.503906 45.964844 80.527344 47.949219 82.476562 49.992188 C 83.460938 51.003906 84.417969 52.039062 85.328125 53.089844 C 85.515625 53.3125 85.703125 53.53125 85.890625 53.75 C 85.601562 53.699219 85.3125 53.652344 85.03125 53.601562 L 81.832031 53.023438 L 75.429688 51.820312 L 62.632812 49.339844 L 75.144531 53.007812 L 81.417969 54.808594 L 84.566406 55.6875 C 85.636719 55.96875 86.628906 56.261719 87.808594 56.511719 C 90.121094 56.898438 122.28125 72.347656 124.386719 74.066406 C 125.214844 74.894531 132.308594 85.042969 137.546875 92.628906 L 100.484375 84.835938 L 62.34375 66.082031 L 98.035156 86.242188 L 79.996094 102.984375 L 60.902344 103.609375 L 80.035156 105.367188 L 106.644531 125.429688 L 85.929688 148.398438 L 86.011719 148.472656 L 60.328125 152.105469 L 86.792969 150.757812 L 107.511719 180.652344 L 85.261719 210.195312 L 59.460938 216.1875 L 85.332031 212.601562 L 106.464844 248.257812 L 84.074219 289.476562 L 62.917969 290.375 L 84.015625 291.832031 L 101.5 329.375 C 99.152344 333.082031 96.8125 336.800781 94.511719 340.539062 L 90.632812 346.894531 C 89.351562 349.023438 88.082031 351.15625 86.832031 353.304688 C 88.320312 351.316406 89.785156 349.3125 91.242188 347.300781 L 95.574219 341.246094 C 98.375 337.292969 101.136719 333.316406 103.890625 329.328125 L 112.921875 326.308594 C 116.035156 325.273438 119.128906 324.179688 122.230469 323.117188 C 125.335938 322.058594 128.429688 320.96875 131.523438 319.867188 C 134.195312 318.914062 136.875 317.976562 139.546875 317.007812 L 141.023438 325.179688 C 141.628906 328.34375 142.199219 331.511719 142.828125 334.667969 C 144.054688 340.992188 145.34375 347.304688 146.757812 353.59375 C 146.0625 347.183594 145.234375 340.792969 144.347656 334.414062 C 143.921875 331.222656 143.4375 328.039062 142.984375 324.851562 L 141.628906 315.914062 L 168.195312 281.085938 C 170.121094 280.675781 177.609375 279.066406 185.488281 277.109375 C 191.277344 280.480469 197.460938 283.15625 203.875 285.074219 L 204.59375 310.550781 C 202.617188 313.796875 200.703125 317.058594 198.816406 320.34375 C 196.867188 323.742188 194.953125 327.164062 193.105469 330.621094 C 191.253906 334.078125 189.4375 337.550781 187.742188 341.085938 C 186.050781 344.621094 184.417969 348.1875 183.058594 351.859375 C 184.609375 348.265625 186.414062 344.796875 188.285156 341.367188 C 190.152344 337.933594 192.140625 334.570312 194.160156 331.226562 C 196.179688 327.882812 198.261719 324.578125 200.378906 321.296875 C 202.394531 318.171875 204.445312 315.0625 206.53125 312 L 233.972656 307.957031 C 233.964844 311.21875 233.886719 314.503906 233.738281 317.777344 C 233.5625 321.53125 233.308594 325.28125 232.921875 329.023438 C 232.527344 332.757812 232.023438 336.488281 231.246094 340.164062 C 230.859375 342.003906 230.398438 343.828125 229.800781 345.609375 C 229.203125 347.386719 228.484375 349.140625 227.425781 350.707031 C 228.566406 349.199219 229.386719 347.46875 230.089844 345.714844 C 230.789062 343.953125 231.347656 342.136719 231.835938 340.308594 C 232.820312 336.648438 233.53125 332.921875 234.128906 329.179688 C 234.71875 325.4375 235.179688 321.679688 235.5625 317.910156 C 235.921875 314.265625 236.207031 310.628906 236.398438 306.949219 L 250.976562 285.296875 C 259.023438 282.988281 266.460938 279.570312 273.175781 275.253906 L 273.21875 275.25 L 273.59375 275.003906 C 275.34375 273.867188 277.046875 272.65625 278.707031 271.390625 L 279.964844 271.390625 L 279.644531 272.039062 C 278.796875 273.734375 278.015625 275.449219 277.199219 277.15625 C 275.601562 280.574219 274.027344 284.003906 272.472656 287.441406 C 269.367188 294.3125 266.308594 301.203125 263.292969 308.109375 C 260.273438 315.019531 257.277344 321.933594 254.332031 328.875 C 252.859375 332.34375 251.390625 335.816406 249.957031 339.300781 C 249.230469 341.039062 248.523438 342.789062 247.824219 344.535156 C 247.464844 345.40625 247.132812 346.289062 246.796875 347.171875 C 246.632812 347.613281 246.453125 348.046875 246.300781 348.496094 L 245.867188 349.839844 L 246.335938 348.507812 C 246.5 348.066406 246.691406 347.636719 246.867188 347.199219 C 247.226562 346.328125 247.582031 345.457031 247.964844 344.59375 C 248.710938 342.867188 249.460938 341.140625 250.234375 339.421875 C 251.761719 335.976562 253.324219 332.546875 254.886719 329.121094 C 258.015625 322.265625 261.199219 315.4375 264.402344 308.617188 C 267.601562 301.796875 270.84375 294.996094 274.128906 288.21875 C 275.769531 284.828125 277.433594 281.453125 279.113281 278.089844 C 279.972656 276.417969 280.796875 274.722656 281.679688 273.074219 L 282.992188 270.59375 L 284.363281 268.203125 L 283.347656 267.585938 L 284.363281 268.203125 C 285.054688 267.058594 285.976562 265.683594 287.039062 264.121094 C 292.125 259.054688 296.578125 253.34375 300.226562 247.148438 L 300.441406 246.789062 L 300.457031 246.671875 C 311.546875 227.585938 315.203125 204.195312 308.734375 181.320312 Z M 249.625 281.460938 C 239.921875 284.210938 230.125 285.035156 220.640625 284.171875 C 222.273438 283.316406 223.445312 282.539062 224.132812 282.035156 C 225.082031 282.136719 226.730469 282.269531 228.960938 282.269531 C 234.441406 282.269531 243.332031 281.460938 253.328125 277.445312 L 250.875 281.085938 C 250.460938 281.214844 250.042969 281.339844 249.625 281.460938 Z M 176.542969 110.308594 C 181.207031 110.363281 209.878906 116.40625 214.125 118.027344 C 214.933594 118.335938 216.808594 119.230469 219.261719 120.441406 C 218.535156 120.515625 217.808594 120.601562 217.082031 120.695312 C 207.925781 121.878906 198.964844 124.582031 190.679688 128.660156 C 186.734375 130.601562 182.949219 132.855469 179.359375 135.390625 C 178.464844 136.027344 169.363281 143.613281 169.414062 143.648438 C 169.414062 143.648438 152.414062 127.417969 152.414062 127.417969 Z M 224.113281 277.9375 C 217.828125 275.210938 212.480469 271.113281 208.617188 267.582031 C 215.21875 260.824219 230.292969 245.421875 232.269531 243.660156 C 233.476562 242.648438 243.761719 240.1875 255.554688 237.777344 L 264.285156 245.210938 C 262.640625 257.542969 260.214844 265.230469 259.136719 268.234375 C 257.859375 270.03125 256.894531 271.136719 256.492188 271.578125 C 240.519531 279.53125 226.140625 278.183594 224.113281 277.9375 Z M 264.125 259.804688 C 264.933594 256.386719 265.773438 252.152344 266.492188 247.089844 L 268.597656 248.882812 C 267.183594 253.140625 265.636719 256.773438 264.125 259.804688 Z M 294.542969 231.105469 C 284.535156 240.96875 274.515625 244.898438 271.414062 245.941406 L 267.101562 242.273438 C 267.359375 240.003906 267.589844 237.59375 267.78125 235.042969 C 271.15625 232.664062 290.597656 218.742188 296.347656 209.953125 C 296.929688 209.984375 297.78125 210.019531 298.789062 210.023438 C 298.359375 215.90625 297.226562 223.34375 294.542969 231.105469 Z M 202.726562 261.503906 L 213.496094 237.679688 C 217.347656 237.511719 222.265625 236.824219 227.21875 235.949219 L 230.003906 242.441406 C 226.449219 245.859375 212.976562 259.625 206.84375 265.90625 C 204.925781 264.03125 203.523438 262.445312 202.726562 261.503906 Z M 175.601562 208.902344 L 170.273438 201.691406 C 176.609375 202.820312 187.121094 204.660156 193.097656 205.535156 C 193.613281 206.640625 194.128906 207.71875 194.636719 208.773438 Z M 166.960938 196.96875 C 162.84375 182.402344 163.878906 171.785156 164.085938 170.070312 C 164.707031 168.753906 168.46875 161.414062 179.257812 151.921875 C 190.839844 152.046875 205.675781 152.371094 213.460938 152.898438 L 217.460938 175.882812 C 205.589844 186.691406 196.21875 198.191406 193.597656 201.5 C 186.054688 200.390625 171.300781 197.75 166.960938 196.96875 Z M 218.605469 153.519531 C 220.878906 154.472656 235.519531 169.617188 244.765625 179.515625 L 240.898438 183.542969 C 232.738281 179.746094 224.375 176.339844 221.460938 175.167969 L 217.652344 153.304688 C 218.09375 153.371094 218.425781 153.445312 218.605469 153.519531 Z M 252.789062 189.601562 C 250.046875 188.007812 246.707031 186.304688 243.226562 184.640625 L 247.117188 180.585938 C 252.808594 178.6875 266.371094 177.871094 275.566406 177.527344 C 268.835938 182.15625 256.320312 187.988281 252.789062 189.601562 Z M 272.011719 148.832031 C 273.167969 151.769531 278.589844 166.117188 277.839844 175 C 268.875 175.277344 253.628906 176.050781 246.804688 178.128906 C 242.375 173.382812 227.089844 157.109375 221.285156 152.453125 C 228.519531 147.9375 241.199219 139.945312 246.367188 136.171875 C 252.402344 138.125 262.574219 142.074219 272.011719 148.832031 Z M 243.445312 135.28125 C 237.96875 139.050781 226.699219 146.207031 218.878906 151.078125 C 218.453125 150.984375 217.894531 150.898438 217.21875 150.816406 L 216.589844 147.1875 C 218.714844 145.234375 226.097656 139.300781 241.476562 134.75 C 241.894531 134.855469 242.566406 135.03125 243.445312 135.28125 Z M 186.941406 145.753906 C 188.675781 145.292969 198.3125 143.160156 212.613281 148.015625 L 213.035156 150.445312 C 204.726562 149.882812 190.707031 149.625 182.09375 149.515625 C 183.59375 148.289062 185.203125 147.03125 186.941406 145.753906 Z M 232.070312 241.074219 L 229.679688 235.503906 C 237.757812 233.992188 245.4375 232.152344 248.160156 231.484375 L 253.191406 235.769531 C 245.0625 237.449219 235.757812 239.554688 232.070312 241.074219 Z M 250.898438 228.476562 C 254.308594 210.367188 254.679688 197.308594 254.703125 193.199219 C 258.992188 191.238281 273.339844 184.523438 279.785156 179.464844 C 281.417969 180.550781 284.527344 182.742188 287.972656 185.769531 C 291.453125 195.050781 293.90625 206.070312 294.417969 208.460938 C 288.992188 216.992188 268.378906 231.636719 266.128906 233.222656 C 264.597656 233.507812 261.734375 234.050781 258.257812 234.742188 Z M 265.273438 235.867188 C 265.148438 237.421875 265.007812 238.914062 264.859375 240.363281 L 260.628906 236.761719 C 262.175781 236.457031 263.730469 236.160156 265.273438 235.867188 Z M 296.707031 207.523438 C 296.144531 204.90625 294.394531 197.1875 291.847656 189.445312 C 294.351562 192.007812 296.804688 194.941406 298.796875 198.152344 C 298.902344 199.316406 299.148438 202.753906 298.929688 207.574219 C 298.101562 207.578125 297.34375 207.558594 296.707031 207.523438 Z M 302.863281 198.054688 C 303.671875 196.902344 305.261719 194.363281 306.679688 190.535156 C 307.585938 195.738281 307.960938 200.9375 307.84375 206.070312 C 306.621094 206.742188 304.863281 207.132812 303.027344 207.347656 C 303.207031 202.828125 302.992188 199.519531 302.863281 198.054688 Z M 274.332031 145.496094 C 270.738281 142.925781 267.070312 140.746094 263.550781 138.921875 C 268.765625 140.152344 274.195312 141.335938 278.128906 141.945312 C 279.769531 143.269531 281.359375 144.660156 282.890625 146.113281 C 280.578125 145.714844 277.886719 145.542969 274.332031 145.496094 Z M 249.6875 132.925781 C 250.730469 131.667969 252.261719 129.929688 253.628906 128.402344 C 260.800781 130.863281 267.585938 134.332031 273.785156 138.683594 C 265.363281 136.996094 254.015625 134.0625 249.6875 132.925781 Z M 184.21875 142.714844 C 181.082031 145.039062 178.328125 147.296875 175.921875 149.449219 C 175.761719 149.449219 175.613281 149.445312 175.484375 149.445312 L 172.355469 146.457031 C 176.847656 142.121094 181.871094 138.277344 187.371094 135.050781 C 186.058594 137.261719 184.886719 139.851562 184.21875 142.714844 Z M 157.40625 225.171875 C 157.875 215.46875 164.199219 204.453125 166.339844 200.988281 C 166.476562 201.011719 166.625 201.039062 166.777344 201.066406 L 173.503906 210.160156 L 159.609375 230.878906 C 158.875 229.097656 158.136719 227.199219 157.40625 225.171875 Z M 175.644531 211.34375 L 195.828125 211.207031 C 202.25 224.132812 207.96875 233.046875 209.851562 235.878906 L 199.03125 259.816406 C 185.734375 260.019531 175.097656 254.796875 173.585938 254.011719 C 172.636719 253.136719 166.882812 247.433594 160.75 233.550781 Z M 300.1875 237.351562 C 299.691406 234.886719 298.96875 233.070312 298.503906 232.070312 C 301.320312 223.796875 302.480469 215.964844 302.894531 209.828125 C 304.5625 209.652344 306.265625 209.332031 307.734375 208.785156 C 307.488281 213.105469 306.894531 217.375 305.96875 221.550781 C 304.46875 227.203125 302.4375 232.492188 300.1875 237.351562 Z M 247.242188 132.070312 C 246.160156 131.503906 244.226562 130.492188 241.820312 129.242188 C 240.929688 127.9375 239.585938 126.308594 237.640625 124.6875 C 242.222656 125.261719 246.71875 126.242188 251.089844 127.582031 C 249.691406 129.15625 248.15625 130.917969 247.242188 132.070312 Z M 173.335938 150.765625 L 159.066406 168.28125 C 157.769531 168.726562 156.605469 169.238281 155.578125 169.796875 C 159.367188 161.84375 164.441406 154.523438 170.625 148.175781 Z M 153.703125 226.867188 C 154.765625 229.792969 155.839844 232.46875 156.90625 234.90625 L 155.027344 237.710938 C 153.34375 234.023438 151.917969 230.164062 150.78125 226.144531 C 150.523438 225.234375 150.289062 224.320312 150.066406 223.40625 C 151.636719 225.308594 152.90625 226.339844 153.703125 226.867188 Z M 158.085938 237.523438 C 163.601562 249.339844 168.679688 254.917969 170.457031 256.648438 C 170.59375 258.167969 170.859375 259.621094 171.203125 260.976562 C 165.230469 255.011719 160.152344 248.050781 156.25 240.257812 Z M 138.585938 66.121094 C 139.910156 66.253906 141.261719 66.308594 142.578125 66.308594 C 147.878906 66.308594 152.648438 65.457031 152.980469 65.394531 L 152.917969 65.046875 C 165.128906 73.078125 177.347656 81.09375 189.613281 89.054688 C 193.105469 91.253906 202.765625 96.628906 214.996094 103.4375 C 225.753906 109.425781 238.398438 116.464844 249.683594 122.933594 C 246.757812 121.257812 241.609375 121.09375 238.308594 120.675781 C 234.089844 120.136719 229.746094 119.914062 225.496094 120.035156 C 225 120.050781 224.507812 120.066406 224.011719 120.089844 C 220.296875 118.214844 217.183594 116.6875 215.613281 116.003906 L 215.679688 115.914062 C 208.0625 110.136719 196.441406 101.242188 195.636719 100.4375 C 194.121094 98.917969 159.175781 81.140625 158.828125 80.964844 C 158.347656 80.722656 157.691406 80.457031 156.914062 80.171875 Z M 128.253906 75.136719 C 135.703125 76.851562 153.636719 81.09375 157.738281 83.148438 C 164.261719 86.417969 192.34375 100.890625 193.914062 102.164062 C 194.75 103 203.597656 109.777344 209.386719 114.191406 C 199.457031 111.75 180.519531 107.855469 176.378906 107.871094 L 141.644531 93.488281 L 141.007812 93.355469 C 139.335938 90.925781 132.027344 80.328125 128.253906 75.136719 Z M 100.085938 86 Z M 82.390625 104.089844 L 100.453125 87.324219 L 140.921875 95.832031 L 173.640625 109.375 L 150.144531 126.042969 L 108.875 124.058594 Z M 88.597656 149.082031 L 108.957031 126.503906 L 149.992188 128.476562 L 167.683594 145.371094 C 158.835938 154.464844 152.148438 165.457031 148.105469 177.449219 C 148.0625 177.546875 148.015625 177.648438 147.976562 177.734375 L 147.917969 177.890625 L 109.636719 179.4375 Z M 85.96875 211.28125 Z M 87.433594 211.363281 L 109.640625 181.878906 L 147.144531 180.367188 C 144.449219 189.445312 143.324219 198.769531 143.773438 208.183594 C 143.78125 208.28125 143.785156 208.375 143.789062 208.472656 C 143.8125 208.945312 143.84375 209.417969 143.875 209.894531 C 143.894531 210.214844 143.917969 210.53125 143.941406 210.851562 C 143.96875 211.171875 143.996094 211.492188 144.027344 211.808594 C 144.066406 212.277344 144.113281 212.742188 144.164062 213.207031 C 144.175781 213.316406 144.183594 213.429688 144.195312 213.539062 L 144.234375 213.886719 L 144.238281 213.898438 C 144.75 218.347656 145.621094 222.8125 146.875 227.253906 C 148.300781 232.292969 150.167969 237.085938 152.402344 241.621094 L 150.125 245.015625 L 108.355469 246.667969 Z M 84.816406 290.664062 Z M 139.582031 314.578125 C 136.625 315.5625 133.683594 316.597656 130.734375 317.605469 C 127.632812 318.667969 124.53125 319.746094 121.441406 320.851562 C 118.351562 321.953125 115.25 323.027344 112.171875 324.15625 L 103.269531 327.402344 L 86.179688 290.707031 L 108.78125 249.09375 L 150.050781 247.460938 L 166.074219 279.847656 Z M 168.171875 278.59375 L 152.195312 246.304688 L 153.671875 244.105469 C 159.019531 254.105469 166.242188 262.730469 174.757812 269.652344 L 174.8125 269.742188 L 175.109375 269.980469 C 177.492188 271.894531 179.980469 273.667969 182.550781 275.3125 C 176.152344 276.859375 170.355469 278.125 168.171875 278.59375 Z M 212.28125 287.128906 L 212.746094 287.214844 L 212.832031 287.191406 C 217.742188 288.09375 222.761719 288.574219 227.835938 288.574219 C 234.308594 288.574219 240.871094 287.808594 247.410156 286.238281 L 234.496094 305.414062 L 207 309.464844 L 206.332031 285.765625 C 208.296875 286.289062 210.28125 286.75 212.28125 287.128906 Z M 235.207031 306.542969 Z M 205.820312 310.871094 Z M 257.511719 275.597656 C 257.621094 275.542969 257.726562 275.492188 257.835938 275.441406 C 259.347656 275.957031 260.835938 276.382812 262.4375 276.605469 C 259.921875 277.8125 257.324219 278.894531 254.648438 279.847656 Z M 257.511719 275.597656 " fill-opacity="1" fill-rule="nonzero"/></g></svg>